<?xml version="1.0" standalone="no"?>
<!DOCTYPE svg PUBLIC "-//W3C//DTD SVG 20010904//EN"
 "http://www.w3.org/TR/2001/REC-SVG-20010904/DTD/svg10.dtd">
<svg version="1.0" xmlns="http://www.w3.org/2000/svg"
 width="283.000000pt" height="283.000000pt" viewBox="0 0 283.000000 283.000000"
 preserveAspectRatio="xMidYMid meet">
<metadata>
Created by potrace 1.14, written by Peter Selinger 2001-2017
</metadata>
<g transform="translate(0.000000,283.000000) scale(0.100000,-0.100000)"
fill="#000000" stroke="none">
<path d="M1519 2706 c-2 -2 -56 -6 -119 -10 -144 -8 -199 -15 -221 -27 -12 -6
-20 -5 -24 1 -4 7 -11 7 -18 2 -7 -5 -41 -15 -77 -22 -36 -6 -69 -16 -75 -20
-5 -5 -12 -8 -15 -8 -20 0 -60 -16 -60 -23 0 -5 -4 -8 -9 -7 -11 3 -30 -9
-127 -83 -40 -31 -70 -59 -67 -63 3 -3 -1 -6 -10 -6 -8 0 -22 -6 -29 -12 -25
-24 -77 -58 -88 -58 -5 0 -10 -4 -10 -10 0 -5 -7 -10 -15 -10 -8 0 -15 -4 -15
-10 0 -5 -5 -10 -10 -10 -13 0 -23 -8 -97 -80 -66 -64 -130 -159 -164 -245
-13 -33 -26 -62 -29 -65 -3 -3 -6 -18 -7 -35 -1 -16 -4 -48 -7 -70 -3 -22 -8
-71 -11 -110 -13 -166 -16 -193 -24 -245 -11 -69 -7 -176 9 -215 7 -16 16 -39
20 -50 32 -78 45 -105 53 -105 4 0 6 -4 3 -8 -10 -17 108 -292 126 -292 4 0 8
-7 8 -15 0 -8 5 -15 10 -15 6 0 10 -5 10 -11 0 -6 33 -43 73 -83 91 -88 312
-231 431 -278 28 -11 62 -25 76 -31 14 -5 36 -12 49 -14 13 -2 33 -11 45 -19
11 -8 28 -14 38 -14 9 0 37 -6 60 -14 24 -8 57 -17 73 -20 17 -2 30 -5 30 -6
0 -3 110 -13 152 -14 24 -1 43 -5 43 -9 0 -5 5 -5 11 -2 16 10 80 12 86 2 3
-4 10 -3 17 3 7 5 31 12 52 15 51 5 95 14 114 22 8 3 20 7 27 9 11 2 161 74
193 93 8 5 35 19 60 32 25 12 58 30 75 38 16 9 32 18 35 21 3 3 25 18 50 34
55 36 210 192 210 212 0 8 4 14 10 14 5 0 22 21 37 47 15 27 31 53 36 58 13
16 46 77 58 108 6 15 15 27 20 27 5 0 9 10 9 23 0 12 6 31 13 42 12 19 40 120
52 190 7 38 7 222 0 254 -2 14 -7 60 -10 103 -4 43 -9 88 -11 101 -3 12 -7 32
-9 44 -2 11 -6 30 -9 41 -4 11 -9 30 -11 42 -6 31 -58 140 -67 140 -5 0 -8 6
-8 13 0 6 -18 32 -41 56 -22 25 -43 50 -47 57 -4 6 -36 44 -72 84 -36 40 -77
87 -92 104 -43 48 -125 118 -238 200 -36 27 -67 51 -70 55 -9 11 -84 57 -136
84 -61 31 -190 64 -258 66 -28 1 -53 4 -56 6 -4 3 -9 3 -11 1z"/>
</g>
</svg>
